STARTFONT 2.1
FONT -FontForge-Impact-Book-R-Normal--24-240-72-72-P-124-ISO10646-1
SIZE 24 72 72
FONTBOUNDINGBOX 32 36 -2 -8
COMMENT "Generated by fontforge, http://fontforge.sourceforge.net"
COMMENT "(c) 2006 The Monotype Corporation. All Rights Reserved."
STARTPROPERTIES 39
FOUNDRY "FontForge"
FAMILY_NAME "Impact"
WEIGHT_NAME "Book"
SLANT "R"
SETWIDTH_NAME "Normal"
ADD_STYLE_NAME ""
PIXEL_SIZE 24
POINT_SIZE 240
RESOLUTION_X 72
RESOLUTION_Y 72
SPACING "P"
AVERAGE_WIDTH 124
CHARSET_REGISTRY "ISO10646"
CHARSET_ENCODING "1"
FONTNAME_REGISTRY ""
CHARSET_COLLECTIONS "ASCII ISOLatin1Encoding ISO8859-2 ISO8859-5 ISO8859-7 ISO8859-9 ISO8859-4 ISO10646-1"
FONT_NAME "Impact"
FACE_NAME "Impact"
COPYRIGHT "(c) 2006 The Monotype Corporation. All Rights Reserved."
FONT_VERSION "5.00x"
FONT_ASCENT 19
FONT_DESCENT 5
UNDERLINE_POSITION -3
UNDERLINE_THICKNESS 2
X_HEIGHT 15
CAP_HEIGHT 18
RAW_ASCENT 799
RAW_DESCENT 200
NORM_SPACE 4
RELATIVE_WEIGHT 40
RELATIVE_SETWIDTH 30
SUPERSCRIPT_X 0
SUPERSCRIPT_Y 9
SUPERSCRIPT_SIZE 12
SUBSCRIPT_X 0
SUBSCRIPT_Y 0
SUBSCRIPT_SIZE 12
AVG_LOWERCASE_WIDTH 117
AVG_UPPERCASE_WIDTH 124
ENDPROPERTIES
CHARS 669
STARTCHAR space
ENCODING 32
SWIDTH 176 0
DWIDTH 4 0
BBX 1 1 0 0
BITMAP
00
ENDCHAR
STARTCHAR exclam
ENCODING 33
SWIDTH 270 0
DWIDTH 6 0
BBX 4 19 1 0
BITMAP
F0
F0
F0
F0
F0
F0
F0
F0
F0
F0
F0
F0
60
60
00
F0
F0
F0
F0
ENDCHAR
STARTCHAR quotedbl
ENCODING 34
SWIDTH 369 0
DWIDTH 9 0
BBX 9 6 0 13
BITMAP
F780
F780
F780
F780
6300
6300
ENDCHAR
STARTCHAR numbersign
ENCODING 35
SWIDTH 626 0
DWIDTH 15 0
BBX 14 17 1 0
BITMAP
0618
0618
0C30
0C30
FFFC
FFFC
1860
1860
1860
1860
FFFC
FFFC
30C0
30C0
30C0
6180
6180
ENDCHAR
STARTCHAR dollar
ENCODING 36
SWIDTH 547 0
DWIDTH 13 0
BBX 10 23 1 -2
BITMAP
0C00
0C00
3F00
7F80
FFC0
F3C0
F3C0
F3C0
F800
7E00
7F00
3F80
0F80
07C0
F3C0
F3C0
F3C0
F3C0
7F80
7F80
3F00
0C00
0C00
ENDCHAR
STARTCHAR percent
ENCODING 37
SWIDTH 692 0
DWIDTH 17 0
BBX 17 19 0 0
BITMAP
7C1C00
FE1800
EE1800
EE3000
EE3000
EE6000
EE6000
EEC000
FEC000
7DDF00
01BF80
01BB80
033B80
033B80
063B80
063B80
0C3B80
0C3F80
0C1F00
ENDCHAR
STARTCHAR ampersand
ENCODING 38
SWIDTH 576 0
DWIDTH 14 0
BBX 14 16 0 0
BITMAP
0F80
3FC0
79E0
79E0
79E0
7FE0
3FC0
1FC0
7FC0
FFEC
FBFC
F3FC
F1F8
FFF8
7FFC
3F7C
ENDCHAR
STARTCHAR quotesingle
ENCODING 39
SWIDTH 185 0
DWIDTH 4 0
BBX 4 6 0 13
BITMAP
F0
F0
F0
F0
60
60
ENDCHAR
STARTCHAR parenleft
ENCODING 40
SWIDTH 313 0
DWIDTH 8 0
BBX 6 19 1 0
BITMAP
7C
FC
F0
F0
F0
F0
F0
F0
F0
F0
F0
F0
F0
F0
F0
F0
F0
FC
7C
ENDCHAR
STARTCHAR parenright
ENCODING 41
SWIDTH 313 0
DWIDTH 8 0
BBX 6 19 1 0
BITMAP
F8
FC
3C
3C
3C
3C
3C
3C
3C
3C
3C
3C
3C
3C
3C
3C
3C
FC
F8
ENDCHAR
STARTCHAR asterisk
ENCODING 42
SWIDTH 280 0
DWIDTH 7 0
BBX 5 5 1 14
BITMAP
20
F8
F8
70
50
ENDCHAR
STARTCHAR plus
ENCODING 43
SWIDTH 533 0
DWIDTH 13 0
BBX 11 11 1 4
BITMAP
0E00
0E00
0E00
0E00
FFE0
FFE0
FFE0
0E00
0E00
0E00
0E00
ENDCHAR
STARTCHAR comma
ENCODING 44
SWIDTH 167 0
DWIDTH 4 0
BBX 4 6 0 -2
BITMAP
F0
F0
F0
F0
60
C0
ENDCHAR
STARTCHAR hyphen
ENCODING 45
SWIDTH 294 0
DWIDTH 7 0
BBX 7 3 0 6
BITMAP
FE
FE
FE
ENDCHAR
STARTCHAR period
ENCODING 46
SWIDTH 184 0
DWIDTH 4 0
BBX 4 4 0 0
BITMAP
F0
F0
F0
F0
ENDCHAR
STARTCHAR slash
ENCODING 47
SWIDTH 395 0
DWIDTH 10 0
BBX 7 19 1 0
BITMAP
0E
0E
0E
0E
1C
1C
1C
1C
38
38
38
78
70
70
70
F0
E0
E0
E0
ENDCHAR
STARTCHAR zero
ENCODING 48
SWIDTH 536 0
DWIDTH 13 0
BBX 10 19 1 0
BITMAP
1E00
7F80
FF80
F3C0
F3C0
F3C0
F3C0
F3C0
F3C0
F3C0
F3C0
F3C0
F3C0
F3C0
F3C0
F3C0
7FC0
7F80
3F00
ENDCHAR
STARTCHAR one
ENCODING 49
SWIDTH 380 0
DWIDTH 9 0
BBX 7 19 0 0
BITMAP
06
0E
3E
FE
FE
1E
1E
1E
1E
1E
1E
1E
1E
1E
1E
1E
1E
1E
1E
ENDCHAR
STARTCHAR two
ENCODING 50
SWIDTH 501 0
DWIDTH 12 0
BBX 9 19 1 0
BITMAP
3E00
7F00
FF80
E780
E780
E780
E780
0F80
0F00
1F00
1E00
3E00
3C00
3C00
7800
F800
FF80
FF80
FF80
ENDCHAR
STARTCHAR three
ENCODING 51
SWIDTH 530 0
DWIDTH 13 0
BBX 10 19 1 0
BITMAP
3F00
7F80
FFC0
F3C0
F3C0
F3C0
03C0
1F80
1F00
1FC0
07C0
F3C0
F3C0
F3C0
F3C0
F3C0
FFC0
7F80
3F00
ENDCHAR
STARTCHAR four
ENCODING 52
SWIDTH 499 0
DWIDTH 12 0
BBX 11 19 0 0
BITMAP
0FC0
0FC0
1FC0
1FC0
1FC0
3BC0
3BC0
3BC0
73C0
73C0
73C0
E3C0
FFE0
FFE0
FFE0
FFE0
03C0
03C0
03C0
ENDCHAR
STARTCHAR five
ENCODING 53
SWIDTH 536 0
DWIDTH 13 0
BBX 10 19 1 0
BITMAP
FFC0
FFC0
FFC0
F000
F000
F700
FF80
FFC0
F3C0
F3C0
03C0
03C0
F3C0
F3C0
F3C0
F3C0
FFC0
7F80
1F00
ENDCHAR
STARTCHAR six
ENCODING 54
SWIDTH 541 0
DWIDTH 13 0
BBX 10 19 1 0
BITMAP
1F00
7F80
FFC0
F3C0
F3C0
F000
F700
FF80
FFC0
F3C0
F3C0
F3C0
F3C0
F3C0
F3C0
F3C0
FFC0
7F80
3F00
ENDCHAR
STARTCHAR seven
ENCODING 55
SWIDTH 391 0
DWIDTH 9 0
BBX 8 19 0 0
BITMAP
FF
FF
FF
0F
0F
0F
0E
0E
1E
1E
1E
1C
3C
3C
3C
3C
3C
78
78
ENDCHAR
STARTCHAR eight
ENCODING 56
SWIDTH 534 0
DWIDTH 13 0
BBX 10 19 1 0
BITMAP
3F00
7F80
FFC0
F3C0
F3C0
F3C0
F3C0
7F80
3F00
7F80
F3C0
F3C0
F3C0
F3C0
F3C0
F3C0
FFC0
7F80
3F00
ENDCHAR
STARTCHAR nine
ENCODING 57
SWIDTH 541 0
DWIDTH 13 0
BBX 10 19 1 0
BITMAP
3F00
7F80
FFC0
F3C0
F3C0
F3C0
F3C0
F3C0
F3C0
F3C0
FFC0
7FC0
3BC0
03C0
F3C0
F3C0
FFC0
7F80
3E00
ENDCHAR
STARTCHAR colon
ENCODING 58
SWIDTH 202 0
DWIDTH 5 0
BBX 4 12 1 0
BITMAP
F0
F0
F0
F0
00
00
00
00
F0
F0
F0
F0
ENDCHAR
STARTCHAR semicolon
ENCODING 59
SWIDTH 202 0
DWIDTH 5 0
BBX 4 14 1 -2
BITMAP
F0
F0
F0
F0
00
00
00
00
F0
F0
F0
F0
60
C0
ENDCHAR
STARTCHAR less
ENCODING 60
SWIDTH 533 0
DWIDTH 13 0
BBX 11 11 1 4
BITMAP
0020
01E0
0FE0
7FC0
FE00
F000
FE00
7FC0
0FE0
01E0
0020
ENDCHAR
STARTCHAR equal
ENCODING 61
SWIDTH 533 0
DWIDTH 13 0
BBX 11 7 1 6
BITMAP
FFE0
FFE0
FFE0
0000
FFE0
FFE0
FFE0
ENDCHAR
STARTCHAR greater
ENCODING 62
SWIDTH 533 0
DWIDTH 13 0
BBX 11 11 1 4
BITMAP
8000
F000
FE00
7FC0
0FE0
01E0
0FE0
7FC0
FE00
F000
8000
ENDCHAR
STARTCHAR question
ENCODING 63
SWIDTH 524 0
DWIDTH 13 0
BBX 12 19 0 0
BITMAP
1F80
7FC0
7FE0
F0F0
F0F0
F0F0
00F0
00F0
00F0
F0F0
FFF0
FFE0
F7C0
F000
0000
F000
F000
F000
F000
ENDCHAR
STARTCHAR at
ENCODING 64
SWIDTH 774 0
DWIDTH 19 0
BBX 19 20 0 -1
BITMAP
01FC00
0FFF00
1E0780
38E7C0
33FEC0
631EE0
660C60
C60C60
CC0C60
CC1C60
CC1C60
CC18E0
CC38C0
EE3980
67FF00
73CE00
3800E0
1E03C0
0FFF00
01F800
ENDCHAR
STARTCHAR A
ENCODING 65
SWIDTH 507 0
DWIDTH 12 0
BBX 11 19 0 0
BITMAP
3F80
3F80
3F80
3B80
3B80
3B80
7BC0
7BC0
7BC0
7BC0
73C0
71C0
71C0
7FC0
7FC0
FFE0
F1E0
F1E0
F1E0
ENDCHAR
STARTCHAR B
ENCODING 66
SWIDTH 552 0
DWIDTH 13 0
BBX 10 19 1 0
BITMAP
FF00
FF80
FFC0
F3C0
F3C0
F3C0
FFC0
FF00
FF80
FFC0
F3C0
F3C0
F3C0
F3C0
F3C0
F3C0
FFC0
FF80
FF80
ENDCHAR
STARTCHAR C
ENCODING 67
SWIDTH 553 0
DWIDTH 13 0
BBX 10 19 1 0
BITMAP
1E00
7F80
7FC0
F3C0
F3C0
F3C0
F3C0
F3C0
F000
F000
F000
F3C0
F3C0
F3C0
F3C0
F3C0
FF80
7F80
3E00
ENDCHAR
STARTCHAR D
ENCODING 68
SWIDTH 552 0
DWIDTH 13 0
BBX 10 19 1 0
BITMAP
FF00
FF80
FFC0
F3C0
F3C0
F3C0
F3C0
F3C0
F3C0
F3C0
F3C0
F3C0
F3C0
F3C0
F3C0
F3C0
FFC0
FFC0
FF80
ENDCHAR
STARTCHAR E
ENCODING 69
SWIDTH 415 0
DWIDTH 10 0
BBX 8 19 1 0
BITMAP
FE
FE
FE
FE
F0
F0
F0
FE
FE
FE
FE
F0
F0
F0
F0
FF
FF
FF
FF
ENDCHAR
STARTCHAR F
ENCODING 70
SWIDTH 397 0
DWIDTH 10 0
BBX 8 19 1 0
BITMAP
FF
FF
FF
FF
F0
F0
F0
FF
FF
FF
FF
F0
F0
F0
F0
F0
F0
F0
F0
ENDCHAR
STARTCHAR G
ENCODING 71
SWIDTH 551 0
DWIDTH 13 0
BBX 10 19 1 0
BITMAP
3E00
7F80
FF80
F3C0
F3C0
F3C0
F3C0
F000
F000
F7C0
F7C0
F7C0
F3C0
F3C0
F3C0
F3C0
7FC0
7FC0
1EC0
ENDCHAR
STARTCHAR H
ENCODING 72
SWIDTH 555 0
DWIDTH 13 0
BBX 10 19 1 0
BITMAP
F3C0
F3C0
F3C0
F3C0
F3C0
F3C0
F3C0
FFC0
FFC0
FFC0
FFC0
F3C0
F3C0
F3C0
F3C0
F3C0
F3C0
F3C0
F3C0
ENDCHAR
STARTCHAR I
ENCODING 73
SWIDTH 288 0
DWIDTH 7 0
BBX 4 19 1 0
BITMAP
F0
F0
F0
F0
F0
F0
F0
F0
F0
F0
F0
F0
F0
F0
F0
F0
F0
F0
F0
ENDCHAR
STARTCHAR J
ENCODING 74
SWIDTH 331 0
DWIDTH 8 0
BBX 6 19 0 0
BITMAP
3C
3C
3C
3C
3C
3C
3C
3C
3C
3C
3C
3C
3C
3C
3C
3C
FC
FC
F8
ENDCHAR
STARTCHAR K
ENCODING 75
SWIDTH 536 0
DWIDTH 13 0
BBX 11 19 1 0
BITMAP
F1E0
F1E0
F3C0
F3C0
F780
F780
FF00
FF00
FE00
FE00
FF00
FF00
F780
F780
F3C0
F3C0
F3C0
F1E0
F1E0
ENDCHAR
STARTCHAR L
ENCODING 76
SWIDTH 380 0
DWIDTH 9 0
BBX 7 19 1 0
BITMAP
F0
F0
F0
F0
F0
F0
F0
F0
F0
F0
F0
F0
F0
F0
F0
FE
FE
FE
FE
ENDCHAR
STARTCHAR M
ENCODING 77
SWIDTH 716 0
DWIDTH 17 0
BBX 14 19 1 0
BITMAP
FC7C
FC7C
FC7C
FC7C
FEFC
FEFC
F6BC
F6BC
F6BC
F7BC
F7BC
F7BC
F7BC
F7BC
F7BC
F33C
F33C
F33C
F33C
ENDCHAR
STARTCHAR N
ENCODING 78
SWIDTH 541 0
DWIDTH 13 0
BBX 10 19 1 0
BITMAP
F1C0
F1C0
F1C0
F9C0
F9C0
F9C0
FDC0
FDC0
FFC0
FFC0
EFC0
EFC0
EFC0
E7C0
E7C0
E7C0
E3C0
E3C0
E3C0
ENDCHAR
STARTCHAR O
ENCODING 79
SWIDTH 546 0
DWIDTH 13 0
BBX 10 19 1 0
BITMAP
1E00
7F80
7F80
F3C0
F3C0
F3C0
F3C0
F3C0
F3C0
F3C0
F3C0
F3C0
F3C0
F3C0
F3C0
F3C0
7F80
7F80
1E00
ENDCHAR
STARTCHAR P
ENCODING 80
SWIDTH 501 0
DWIDTH 12 0
BBX 10 19 1 0
BITMAP
FF00
FF80
FFC0
F3C0
F3C0
F3C0
F3C0
F3C0
FFC0
FF80
FF00
F000
F000
F000
F000
F000
F000
F000
F000
ENDCHAR
STARTCHAR Q
ENCODING 81
SWIDTH 546 0
DWIDTH 13 0
BBX 10 21 1 -2
BITMAP
1E00
7F80
7F80
F3C0
F3C0
F3C0
F3C0
F3C0
F3C0
F3C0
F3C0
F3C0
F3C0
F3C0
F3C0
F3C0
7F80
7E00
1E00
07C0
03C0
ENDCHAR
STARTCHAR R
ENCODING 82
SWIDTH 538 0
DWIDTH 13 0
BBX 10 19 1 0
BITMAP
FF00
FF80
FFC0
F3C0
F3C0
F3C0
FFC0
FF80
FF00
FF80
F3C0
F3C0
F3C0
F3C0
F3C0
F3C0
F3C0
F3C0
F3C0
ENDCHAR
STARTCHAR S
ENCODING 83
SWIDTH 517 0
DWIDTH 12 0
BBX 11 19 0 0
BITMAP
3F00
7F80
FFC0
F3C0
F3C0
F3C0
F800
FE00
7F00
3FC0
0FC0
03E0
F1E0
F1E0
F1E0
F1E0
FFE0
7FC0
1F00
ENDCHAR
STARTCHAR T
ENCODING 84
SWIDTH 460 0
DWIDTH 11 0
BBX 10 19 0 0
BITMAP
FFC0
FFC0
FFC0
FFC0
1E00
1E00
1E00
1E00
1E00
1E00
1E00
1E00
1E00
1E00
1E00
1E00
1E00
1E00
1E00
ENDCHAR
STARTCHAR U
ENCODING 85
SWIDTH 546 0
DWIDTH 13 0
BBX 10 19 1 0
BITMAP
F3C0
F3C0
F3C0
F3C0
F3C0
F3C0
F3C0
F3C0
F3C0
F3C0
F3C0
F3C0
F3C0
F3C0
F3C0
F3C0
FFC0
7F80
1F00
ENDCHAR
STARTCHAR V
ENCODING 86
SWIDTH 523 0
DWIDTH 12 0
BBX 11 19 0 0
BITMAP
F1E0
F1E0
F1E0
F1E0
73C0
7BC0
7BC0
7BC0
7BC0
7BC0
7BC0
7BC0
7BC0
3B80
3F80
3F80
3F80
3F80
3F80
ENDCHAR
STARTCHAR W
ENCODING 87
SWIDTH 814 0
DWIDTH 20 0
BBX 17 19 1 0
BITMAP
F1C780
F1C780
F3E780
F3E780
73E700
73E700
73E700
73E700
777700
777700
777700
777700
777700
377600
3F7E00
3E3E00
3E3E00
3E3E00
3E3E00
ENDCHAR
STARTCHAR X
ENCODING 88
SWIDTH 482 0
DWIDTH 12 0
BBX 11 19 0 0
BITMAP
F1E0
F1E0
F1E0
7BC0
7BC0
7BC0
3F80
3F80
3F80
3F80
3F80
3B80
7BC0
7BC0
7BC0
F1E0
F1E0
F1E0
F1E0
ENDCHAR
STARTCHAR Y
ENCODING 89
SWIDTH 473 0
DWIDTH 11 0
BBX 10 19 0 0
BITMAP
F3C0
F3C0
7380
7380
7380
7380
3700
3F00
3F00
3F00
1E00
1E00
1E00
1E00
1E00
1E00
1E00
1E00
1E00
ENDCHAR
STARTCHAR Z
ENCODING 90
SWIDTH 396 0
DWIDTH 10 0
BBX 9 19 0 0
BITMAP
FF80
FF80
FF80
FF80
0780
0F00
0F00
1F00
1E00
1E00
3C00
3C00
7C00
7800
7800
FF80
FF80
FF80
FF80
ENDCHAR
STARTCHAR bracketleft
ENCODING 91
SWIDTH 282 0
DWIDTH 7 0
BBX 5 19 1 0
BITMAP
F8
F8
F8
F0
F0
F0
F0
F0
F0
F0
F0
F0
F0
F0
F0
F0
F8
F8
F8
ENDCHAR
STARTCHAR backslash
ENCODING 92
SWIDTH 395 0
DWIDTH 10 0
BBX 9 19 1 0
BITMAP
E000
E000
7000
7000
7000
3800
3800
3800
1C00
1C00
1C00
0E00
0E00
0E00
0F00
0700
0700
0780
0380
ENDCHAR
STARTCHAR bracketright
ENCODING 93
SWIDTH 282 0
DWIDTH 7 0
BBX 5 19 1 0
BITMAP
F8
F8
F8
78
78
78
78
78
78
78
78
78
78
78
78
78
F8
F8
F8
ENDCHAR
STARTCHAR asciicircum
ENCODING 94
SWIDTH 483 0
DWIDTH 12 0
BBX 11 9 1 10
BITMAP
0E00
1F00
1F00
3B80
3B80
3B80
71C0
71C0
E0E0
ENDCHAR
STARTCHAR underscore
ENCODING 95
SWIDTH 552 0
DWIDTH 13 0
BBX 13 1 0 -3
BITMAP
FFF8
ENDCHAR
STARTCHAR grave
ENCODING 96
SWIDTH 333 0
DWIDTH 8 0
BBX 5 3 1 18
BITMAP
E0
70
38
ENDCHAR
STARTCHAR a
ENCODING 97
SWIDTH 503 0
DWIDTH 12 0
BBX 10 16 1 0
BITMAP
3F00
7F80
FFC0
E3C0
E3C0
E3C0
0FC0
3FC0
7BC0
E3C0
E3C0
E3C0
E3C0
FFC0
FFC0
7BC0
ENDCHAR
STARTCHAR b
ENCODING 98
SWIDTH 519 0
DWIDTH 12 0
BBX 10 19 1 0
BITMAP
F000
F000
F000
F780
FFC0
FFC0
F3C0
F3C0
F3C0
F3C0
F3C0
F3C0
F3C0
F3C0
F3C0
F3C0
FFC0
FFC0
F780
ENDCHAR
STARTCHAR c
ENCODING 99
SWIDTH 494 0
DWIDTH 12 0
BBX 10 16 1 0
BITMAP
1E00
7F80
FFC0
F1C0
F1C0
F1C0
F000
F000
F000
F1C0
F1C0
F1C0
F1C0
FF80
7F80
3E00
ENDCHAR
STARTCHAR d
ENCODING 100
SWIDTH 519 0
DWIDTH 12 0
BBX 10 19 1 0
BITMAP
03C0
03C0
03C0
7BC0
FFC0
FFC0
F3C0
F3C0
F3C0
F3C0
F3C0
F3C0
F3C0
F3C0
F3C0
F3C0
FFC0
FFC0
7BC0
ENDCHAR
STARTCHAR e
ENCODING 101
SWIDTH 511 0
DWIDTH 12 0
BBX 10 16 1 0
BITMAP
3E00
7F80
FF80
F3C0
F3C0
FFC0
FFC0
FFC0
F000
F3C0
F3C0
F3C0
F3C0
FF80
7F80
3F00
ENDCHAR
STARTCHAR f
ENCODING 102
SWIDTH 289 0
DWIDTH 7 0
BBX 7 19 0 0
BITMAP
3E
7E
70
70
FE
FE
FE
78
78
78
78
78
78
78
78
78
78
78
78
ENDCHAR
STARTCHAR g
ENCODING 103
SWIDTH 518 0
DWIDTH 12 0
BBX 10 18 1 -2
BITMAP
7BC0
FFC0
FFC0
F3C0
F3C0
F3C0
F3C0
F3C0
F3C0
F3C0
FFC0
FFC0
7BC0
03C0
F3C0
FFC0
7F80
3F00
ENDCHAR
STARTCHAR h
ENCODING 104
SWIDTH 523 0
DWIDTH 13 0
BBX 11 19 1 0
BITMAP
F000
F000
F000
F780
FFC0
FFE0
F1E0
F1E0
F1E0
F1E0
F1E0
F1E0
F1E0
F1E0
F1E0
F1E0
F1E0
F1E0
F1E0
ENDCHAR
STARTCHAR i
ENCODING 105
SWIDTH 273 0
DWIDTH 6 0
BBX 4 19 1 0
BITMAP
F0
F0
00
F0
F0
F0
F0
F0
F0
F0
F0
F0
F0
F0
F0
F0
F0
F0
F0
ENDCHAR
STARTCHAR j
ENCODING 106
SWIDTH 279 0
DWIDTH 6 0
BBX 5 21 0 -2
BITMAP
78
78
00
78
78
78
78
78
78
78
78
78
78
78
78
78
78
78
F8
F8
F0
ENDCHAR
STARTCHAR k
ENCODING 107
SWIDTH 478 0
DWIDTH 11 0
BBX 10 19 1 0
BITMAP
F000
F000
F000
F3C0
F380
F780
F780
F700
FF00
FE00
FF00
FF00
F700
F700
F780
F780
F380
F3C0
F3C0
ENDCHAR
STARTCHAR l
ENCODING 108
SWIDTH 273 0
DWIDTH 6 0
BBX 4 19 1 0
BITMAP
F0
F0
F0
F0
F0
F0
F0
F0
F0
F0
F0
F0
F0
F0
F0
F0
F0
F0
F0
ENDCHAR
STARTCHAR m
ENCODING 109
SWIDTH 770 0
DWIDTH 19 0
BBX 17 16 1 0
BITMAP
F79E00
FFFF00
FFFF80
F1C780
F1C780
F1C780
F1C780
F1C780
F1C780
F1C780
F1C780
F1C780
F1C780
F1C780
F1C780
F1C780
ENDCHAR
STARTCHAR n
ENCODING 110
SWIDTH 522 0
DWIDTH 13 0
BBX 11 16 1 0
BITMAP
F380
FFE0
FFE0
F1E0
F1E0
F1E0
F1E0
F1E0
F1E0
F1E0
F1E0
F1E0
F1E0
F1E0
F1E0
F1E0
ENDCHAR
STARTCHAR o
ENCODING 111
SWIDTH 511 0
DWIDTH 12 0
BBX 10 16 1 0
BITMAP
3E00
7F80
FFC0
F3C0
F3C0
F3C0
F3C0
F3C0
F3C0
F3C0
F3C0
F3C0
F3C0
FF80
7F80
3F00
ENDCHAR
STARTCHAR p
ENCODING 112
SWIDTH 519 0
DWIDTH 12 0
BBX 10 18 1 -2
BITMAP
F780
FFC0
FFC0
F3C0
F3C0
F3C0
F3C0
F3C0
F3C0
F3C0
F3C0
F3C0
F3C0
FFC0
FFC0
F780
F000
F000
ENDCHAR
STARTCHAR q
ENCODING 113
SWIDTH 518 0
DWIDTH 12 0
BBX 10 18 1 -2
BITMAP
7BC0
FFC0
FFC0
F3C0
F3C0
F3C0
F3C0
F3C0
F3C0
F3C0
F3C0
F3C0
F3C0
FFC0
7FC0
3BC0
03C0
03C0
ENDCHAR
STARTCHAR r
ENCODING 114
SWIDTH 357 0
DWIDTH 9 0
BBX 7 16 1 0
BITMAP
F6
FE
FE
FE
F8
F0
F0
F0
F0
F0
F0
F0
F0
F0
F0
F0
ENDCHAR
STARTCHAR s
ENCODING 115
SWIDTH 470 0
DWIDTH 11 0
BBX 9 16 1 0
BITMAP
3E00
7F00
FF80
F180
F180
F000
FC00
7E00
3F00
0F80
0780
C780
C780
FF80
7F00
3E00
ENDCHAR
STARTCHAR t
ENCODING 116
SWIDTH 304 0
DWIDTH 7 0
BBX 7 18 0 0
BITMAP
78
78
78
FE
FE
78
78
78
78
78
78
78
78
78
78
7E
7E
3E
ENDCHAR
STARTCHAR u
ENCODING 117
SWIDTH 522 0
DWIDTH 13 0
BBX 11 16 1 0
BITMAP
F1E0
F1E0
F1E0
F1E0
F1E0
F1E0
F1E0
F1E0
F1E0
F1E0
F1E0
F1E0
F1E0
FFE0
7FE0
3DE0
ENDCHAR
STARTCHAR v
ENCODING 118
SWIDTH 437 0
DWIDTH 11 0
BBX 11 16 0 0
BITMAP
F1E0
F1E0
F1E0
F1E0
71C0
7BC0
7BC0
7BC0
7BC0
7BC0
7BC0
7BC0
3B80
3F80
3F80
3F80
ENDCHAR
STARTCHAR w
ENCODING 119
SWIDTH 669 0
DWIDTH 15 0
BBX 15 16 0 0
BITMAP
F39E
F39E
F39E
F39E
77DC
77DC
77DC
76DC
76DC
76DC
7EFC
3EF8
3C78
3C78
3C78
3C78
ENDCHAR
STARTCHAR x
ENCODING 120
SWIDTH 433 0
DWIDTH 9 0
BBX 11 16 -1 0
BITMAP
F1E0
71C0
71C0
7BC0
3B80
3B80
1F00
1F00
1F00
3F80
3B80
3B80
7BC0
71C0
71C0
F1E0
ENDCHAR
STARTCHAR y
ENCODING 121
SWIDTH 448 0
DWIDTH 11 0
BBX 11 18 0 -2
BITMAP
F1E0
F1E0
71C0
71C0
71C0
7BC0
7BC0
3BC0
3BC0
3BC0
3B80
1B80
1F80
1F80
1F80
7F80
7F00
7E00
ENDCHAR
STARTCHAR z
ENCODING 122
SWIDTH 351 0
DWIDTH 8 0
BBX 8 16 0 0
BITMAP
FF
FF
FF
0F
1F
1E
1E
3C
3C
7C
78
78
F0
FF
FF
FF
ENDCHAR
STARTCHAR braceleft
ENCODING 123
SWIDTH 369 0
DWIDTH 9 0
BBX 8 23 0 -4
BITMAP
07
0F
1F
1C
1C
1C
1C
1C
1C
3C
F8
F0
F8
38
1C
1C
1C
1C
1C
1C
1F
0F
07
ENDCHAR
STARTCHAR bar
ENCODING 124
SWIDTH 270 0
DWIDTH 7 0
BBX 2 22 2 -3
BITMAP
C0
C0
C0
C0
C0
C0
C0
C0
C0
C0
C0
C0
C0
C0
C0
C0
C0
C0
C0
C0
C0
C0
ENDCHAR
STARTCHAR braceright
ENCODING 125
SWIDTH 369 0
DWIDTH 9 0
BBX 8 23 1 -4
BITMAP
E0
F0
F8
38
38
38
38
38
38
3C
1F
0F
1F
3C
38
38
38
38
38
38
F8
F0
E0
ENDCHAR
STARTCHAR asciitilde
ENCODING 126
SWIDTH 524 0
DWIDTH 13 0
BBX 11 5 1 7
BITMAP
3820
FE60
FFE0
CFE0
8380
ENDCHAR
ENDFONT
